<?xml version="1.0" encoding="utf-8"?>
<!-- Generator: Adobe Illustrator 21.0.2, SVG Export Plug-In . SVG Version: 6.00 Build 0)  -->
<svg version="1.1" id="Layer_1" xmlns="http://www.w3.org/2000/svg" xmlns:xlink="http://www.w3.org/1999/xlink" x="0px" y="0px"
	 viewBox="0 0 25 25" style="enable-background:new 0 0 25 25;" xml:space="preserve">
<g>
	<g>
		<path style="fill:#FFFFFF;" d="M18.1,6.9c-1.5-1.5-3.5-2.3-5.6-2.3S8.4,5.4,6.9,6.9l1.4,1.4c1.1-1.1,2.6-1.8,4.2-1.8
			s3.1,0.6,4.2,1.8c1.1,1.1,1.7,2.6,1.7,4.2s-0.6,3.1-1.7,4.2c-1.1,1.1-2.6,1.8-4.2,1.8s-3.1-0.6-4.2-1.8l-1.4,1.4
			c1.5,1.5,3.5,2.3,5.6,2.3s4.1-0.8,5.6-2.3c1.5-1.5,2.3-3.5,2.3-5.6S19.6,8.4,18.1,6.9z"/>
	</g>
</g>
<g>
	<g>
		<polygon style="fill:#FFFFFF;" points="8.6,7.8 5.1,5.7 4.9,11.7 10.2,8.9 		"/>
	</g>
</g>
</svg>
